<svg width="59" height="22" viewBox="0 0 59 22" xmlns="http://www.w3.org/2000/svg"><title>comingSoon</title><path d="M47.96.176C42.013.176 37.162 5.038 37.162 11s4.85 10.824 10.798 10.824c5.947 0 10.797-4.862 10.797-10.824S53.907.176 47.96.176zM22.244 4.16c-3.757 0-6.823 3.072-6.823 6.84s3.07 6.84 6.827 6.84c3.758 0 6.823-3.072 6.823-6.84s-3.066-6.84-6.824-6.84zM4.78 6.966C2.563 6.966.757 8.78.757 11c0 2.22 1.807 4.034 4.024 4.034A4.038 4.038 0 0 0 8.81 11c0-2.22-1.81-4.034-4.025-4.034z" fill="#EB655F" fill-rule="evenodd"/></svg>