<svg width="83" height="23" viewBox="0 0 83 23" xmlns="http://www.w3.org/2000/svg"><title>loadingBar</title><g fill="#2797A1" fill-rule="evenodd"><path d="M32.744 4.14L19.52 19.044h3.373L36.21 4.14h-3.466zm-16.69 0L4.103 17.664c.092.828.73 1.38 1.55 1.38h.548L19.52 4.14h-3.467zm11.49 0L14.32 19.044h2.827L30.464 4.14h-2.92zm10.946 0L25.174 19.044h3.466L41.865 4.14H38.49zm5.746 0L30.92 19.044h3.466L47.61 4.14h-3.374zm-38.58 0c-.913 0-1.643.736-1.643 1.656v2.852L8.026 4.14h-2.37zm4.742 0l-6.385 7.084v3.864l9.76-10.948h-3.375zm11.402 0L8.573 19.044h3.374L25.265 4.14H21.8z"/><path d="M79.9.644H3.1C1.55.644.366 1.84.366 3.404V20.24C.366 21.804 1.55 23 3.1 23h76.71c1.55 0 2.736-1.196 2.736-2.76V3.404c.09-1.472-1.186-2.76-2.645-2.76zm.91 19.596c0 .552-.364.92-.91.92H3.1c-.546 0-.91-.368-.91-.92V3.404c0-.552.364-.92.91-.92h76.71c.547 0 .912.368.912.92V20.24h.09z"/></g></svg>