
<svg width="622" height="250" viewBox="0 0 622 250" xmlns="http://www.w3.org/2000/svg" xmlns:xlink="http://www.w3.org/1999/xlink"><title>logo</title><defs><path id="a" d="M19.888 19.702V.062H.258V19.7h19.63z"/><path id="c" d="M123.97.908H0v125.08h123.97V.91z"/></defs><g fill="none" fill-rule="evenodd"><path d="M188.436 61.588V55.1c0-12.883-5.49-19.32-16.466-19.32-1.793 0-3.325.163-4.59.478-1.267.32-2.326.845-3.167 1.59-.85.73-1.61 1.792-2.298 3.16-.686 1.373-1.346 3.064-1.98 5.07-1.16 3.055-2.292 5.096-3.404 6.092-1.1 1.005-2.712 1.506-4.82 1.506-5.282 0-7.916-2.64-7.916-7.917 0-5.07 2.69-8.998 8.076-11.79 5.383-2.8 13.03-4.208 22.955-4.208 10.553 0 18.05 1.877 22.48 5.623 4.433 3.75 6.65 10.103 6.65 19.073v35.47c0 12.03 2.38 18.045 7.125 18.045 1.48 0 2.9-.182 4.276-.56 1.37-.362 2.534-1.34 3.48-2.92l2.22 3.794c-1.267 2.43-3.587 4.462-6.965 6.1-3.38 1.63-6.914 2.453-10.61 2.453-4.64 0-8.1-1.484-10.37-4.437-2.273-2.95-3.402-7.124-3.402-12.508h-.792c-2.745 5.17-6.544 9.26-11.397 12.27-4.858 3.01-10.24 4.51-16.15 4.51-6.65 0-11.877-1.684-15.68-5.058-3.794-3.382-5.698-7.92-5.698-13.623 0-2.53.45-4.96 1.346-7.28.894-2.32 2.346-4.538 4.352-6.65 2.01-2.11 4.65-4.2 7.92-6.25 3.273-2.06 7.284-4.15 12.03-6.258l22.802-9.98zm0 6.81c-6.017 2.328-11.11 4.59-15.28 6.81-4.17 2.22-7.522 4.426-10.05 6.65-2.537 2.217-4.356 4.43-5.463 6.645-1.112 2.222-1.665 4.493-1.665 6.814 0 3.475 1.16 6.33 3.484 8.55 2.32 2.213 5.38 3.315 9.183 3.315 2.74 0 5.304-.682 7.677-2.05 2.378-1.377 4.46-3.245 6.252-5.623 1.798-2.38 3.22-5.177 4.277-8.39 1.06-3.22 1.59-6.62 1.59-10.21V68.39zm67.598 21.694c0 4.33.106 7.757.318 10.29.21 2.528.762 4.454 1.665 5.778.89 1.32 2.187 2.192 3.88 2.612 1.686.42 4.054.74 7.123.948v5.547h-42.115v-5.547c3.06-.102 5.486-.4 7.283-.868 1.793-.474 3.166-1.346 4.113-2.608.958-1.275 1.56-3.095 1.82-5.468.27-2.377.4-5.565.4-9.58V72.678c0-7.187-.08-12.78-.24-16.786-.16-4.01-.68-6.97-1.58-8.868-.9-1.9-2.293-3.037-4.192-3.4-1.9-.372-4.54-.563-7.917-.563v-5.533L254.3 31.51l2.218 19.635h.633a39.725 39.725 0 0 1 5.144-8.714c2.06-2.63 4.3-4.88 6.73-6.724 2.427-1.85 4.96-3.3 7.598-4.352 2.64-1.053 5.33-1.584 8.078-1.584 3.378 0 6.04.82 7.996 2.456 1.947 1.63 2.926 3.825 2.926 6.566 0 2.54-.794 4.51-2.374 5.944-1.586 1.42-3.857 2.138-6.81 2.138-1.69 0-3.113-.21-4.273-.63a23.8 23.8 0 0 1-3.09-1.35c-.894-.475-1.74-.927-2.532-1.347-.79-.425-1.66-.634-2.61-.634-2.848 0-5.7 1.825-8.55 5.468-2.847 3.64-5.065 8.25-6.65 13.847-.84 3.066-1.506 6.524-1.98 10.376-.474 3.846-.713 7.89-.713 12.113v5.382zm75.516 0c0 4.33.107 7.757.32 10.29.208 2.528.762 4.454 1.665 5.778.89 1.32 2.187 2.192 3.878 2.612 1.687.42 4.056.74 7.124.948v5.547h-42.114v-5.547c3.06-.102 5.485-.4 7.283-.868 1.79-.474 3.166-1.346 4.113-2.608.94-1.275 1.552-3.095 1.82-5.468.26-2.377.392-5.565.392-9.58V72.678c0-7.187-.08-12.78-.24-16.786-.158-4.01-.685-6.97-1.58-8.868-.898-1.9-2.297-3.037-4.197-3.4-1.9-.372-4.54-.563-7.917-.563v-5.533l27.707-6.017 2.22 19.635h.633a39.725 39.725 0 0 1 5.146-8.714c2.06-2.63 4.3-4.88 6.73-6.724 2.426-1.85 4.96-3.3 7.598-4.352 2.634-1.053 5.326-1.584 8.076-1.584 3.38 0 6.04.82 7.992 2.456 1.953 1.63 2.93 3.825 2.93 6.566 0 2.54-.79 4.51-2.372 5.944-1.584 1.42-3.855 2.138-6.81 2.138-1.69 0-3.11-.21-4.27-.63a23.8 23.8 0 0 1-3.09-1.35c-.896-.475-1.74-.927-2.534-1.347-.792-.425-1.665-.634-2.612-.634-2.847 0-5.698 1.825-8.55 5.468-2.847 3.64-5.065 8.25-6.65 13.847-.846 3.066-1.505 6.524-1.98 10.376-.473 3.846-.712 7.89-.712 12.113v5.382zm114.94 10.443c-8.97 10.88-20.105 16.31-33.405 16.31-6.23 0-11.875-1.03-16.94-3.085-5.065-2.063-9.417-4.96-13.06-8.713-3.645-3.737-6.47-8.23-8.47-13.45-2.007-5.23-3.007-11.008-3.007-17.344 0-6.433 1.054-12.4 3.166-17.887 2.107-5.49 5.09-10.183 8.943-14.092 3.852-3.906 8.443-6.965 13.774-9.18 5.337-2.217 11.168-3.328 17.5-3.328 10.236 0 18.152 2.767 23.75 8.315 5.59 5.55 8.39 13.49 8.39 23.83 0 1.48-.294 2.38-.87 2.69-.585.325-1.93.48-4.04.48h-52.09c-.21.84-.37 1.873-.473 3.09a46.59 46.59 0 0 0-.16 4.034c0 5.49.656 10.47 1.98 14.96 1.32 4.495 3.22 8.316 5.698 11.48 2.48 3.16 5.437 5.62 8.87 7.364 3.426 1.745 7.255 2.617 11.475 2.617 4.434 0 8.55-.986 12.346-2.94 3.803-1.947 7.708-5.144 11.715-9.57l4.91 4.426zm-26.122-42.743c2.112 0 3.8-.058 5.07-.155 1.26-.11 2.213-.323 2.847-.638.633-.32 1.053-.77 1.266-1.347.21-.58.32-1.35.32-2.298 0-4.858-1.554-8.736-4.666-11.64-3.117-2.905-7.363-4.353-12.747-4.353-11.4 0-18.472 6.805-21.213 20.424h29.127zm37.364-16.466v-5.853c5.592-3.276 9.976-6.552 13.14-9.824 3.167-3.27 5.598-7.17 7.285-11.717h4.59V33.88h21.218v7.443h-21.217v48.132c0 3.697.18 6.805.553 9.333.378 2.537.98 4.57 1.82 6.1.85 1.533 1.96 2.618 3.33 3.25 1.374.63 3.114.95 5.226.95 2.64 0 4.884-.56 6.73-1.666 1.847-1.11 3.666-2.98 5.46-5.623l3.962 3.004c-1.48 3.91-4.038 6.89-7.682 8.953-3.64 2.055-8.15 3.087-13.535 3.087-6.964 0-12.27-1.665-15.912-4.99-3.64-3.325-5.46-8.103-5.46-14.328V41.324h-9.5zm56.678 0v-5.853c5.598-3.276 9.976-6.552 13.142-9.824 3.166-3.27 5.597-7.17 7.283-11.717h4.592V33.88h21.216v7.443h-21.216v48.132c0 3.697.18 6.805.553 9.333.372 2.537.974 4.57 1.824 6.1.842 1.533 1.948 2.618 3.32 3.25 1.374.63 3.114.95 5.23.95 2.634 0 4.88-.56 6.725-1.666 1.84-1.11 3.66-2.98 5.46-5.623l3.96 3.004c-1.48 3.91-4.04 6.89-7.68 8.953-3.64 2.055-8.156 3.087-13.54 3.087-6.964 0-12.268-1.665-15.91-4.99-3.64-3.325-5.46-8.103-5.46-14.328V41.324h-9.5z" fill="#221F20"/><path d="M171.26 213.98c0 4.02.16 7.238.474 9.66.32 2.426.974 4.33 1.98 5.702 1 1.368 2.426 2.32 4.276 2.852 1.847.522 4.3.845 7.363.943v5.543h-43.7v-5.543c3.166-.098 5.7-.443 7.598-1.027 1.91-.576 3.41-1.5 4.52-2.768 1.105-1.266 1.84-3.037 2.216-5.308.373-2.267.554-5.247.554-8.944v-68.232c0-5.703-.08-10.48-.235-14.332-.16-3.852-.4-6.464-.713-7.837-.527-2.428-1.77-8.68-3.724-9.52-1.952-.85-5.46-9.84-10.528-9.84v-5.37l29.925 11.088v102.93zm91.06 9.978c-8.97 10.874-20.105 16.307-33.406 16.307-6.23 0-11.874-1.028-16.94-3.086-5.065-2.06-9.417-4.97-13.06-8.71-3.644-3.75-6.47-8.24-8.47-13.46-2.006-5.22-3.007-11-3.007-17.34 0-6.436 1.054-12.396 3.166-17.895 2.107-5.48 5.092-10.175 8.944-14.085 3.85-3.904 8.443-6.97 13.774-9.18 5.33-2.214 11.167-3.325 17.5-3.325 10.235 0 18.15 2.766 23.75 8.305 5.59 5.55 8.39 13.497 8.39 23.835 0 1.483-.294 2.373-.87 2.692-.584.314-1.93.474-4.038.474h-52.09c-.212.848-.37 1.875-.473 3.09a46.68 46.68 0 0 0-.16 4.04c0 5.48.655 10.47 1.98 14.956 1.32 4.49 3.217 8.315 5.697 11.48 2.48 3.166 5.437 5.624 8.868 7.36 3.428 1.744 7.258 2.616 11.477 2.616 4.435 0 8.55-.98 12.35-2.93 3.8-1.952 7.705-5.144 11.712-9.58l4.91 4.436zm-26.122-42.743c2.11 0 3.798-.058 5.07-.16 1.26-.106 2.213-.318 2.846-.642.633-.31 1.054-.757 1.266-1.34.208-.577.315-1.343.315-2.3 0-4.847-1.555-8.73-4.667-11.64-3.117-2.895-7.363-4.347-12.747-4.347-11.4 0-18.47 6.81-21.21 20.43h29.13zm193.47 32.61c0 4.33.105 7.73.313 10.21.22 2.483.77 4.38 1.67 5.702.895 1.32 2.22 2.19 3.96 2.612 1.74.42 4.14.733 7.203.942v5.383H401.33v-5.384c2.958-.21 5.304-.526 7.044-.947 1.747-.422 3.09-1.267 4.04-2.53.95-1.274 1.56-3.063 1.82-5.383.266-2.32.4-5.493.4-9.5v-21.06c0-12.563-.316-20.21-.953-22.96-.314-1.367-.71-2.505-1.182-3.403-.478-.895-1.19-1.577-2.142-2.055-.947-.478-2.165-.792-3.64-.956-1.48-.156-3.377-.23-5.697-.23v-5.07l25.33-6.014 1.903 15.668h.628c4.013-4.957 8.71-8.81 14.094-11.55 5.385-2.75 11.243-4.12 17.574-4.12 4.853 0 9.29.786 13.3 2.376 4.01 1.58 7.07 3.744 9.184 6.494 1.79 2.426 3.06 5.565 3.8 9.417.735 3.853 1.107 9.157 1.107 15.914v26.44c0 4.33.13 7.73.392 10.21.265 2.484.82 4.38 1.664 5.703.843 1.32 2.14 2.19 3.88 2.613 1.744.42 4.038.738 6.89.947v5.383h-41.01v-5.383c2.954-.107 5.305-.4 7.05-.868 1.735-.475 3.058-1.347 3.953-2.61.9-1.274 1.48-3.094 1.743-5.467.26-2.378.395-5.512.395-9.417v-20.9c0-6.016-.32-11.08-.945-15.194-.63-4.117-1.663-7.447-3.09-9.98-1.424-2.528-3.297-4.356-5.617-5.46-2.325-1.11-5.118-1.663-8.39-1.663-4.75 0-9.108 1.244-13.062 3.723-3.96 2.484-7.046 5.884-9.26 10.214a34.06 34.06 0 0 0-1.346 3.005c-.373.946-.665 2.058-.873 3.324-.21 1.26-.366 2.716-.472 4.354-.106 1.63-.16 3.715-.16 6.252v21.212zm146.012 10.133c-8.97 10.874-20.106 16.307-33.406 16.307-6.23 0-11.874-1.028-16.94-3.086-5.065-2.06-9.417-4.97-13.06-8.71-3.645-3.75-6.47-8.24-8.47-13.46-2.006-5.22-3.01-11-3.01-17.34 0-6.436 1.057-12.396 3.17-17.895 2.106-5.48 5.09-10.175 8.942-14.085 3.852-3.904 8.444-6.97 13.77-9.18 5.33-2.214 11.166-3.325 17.498-3.325 10.236 0 18.152 2.766 23.75 8.305 5.59 5.55 8.39 13.497 8.39 23.835 0 1.483-.293 2.373-.87 2.692-.583.314-1.93.474-4.037.474h-52.09c-.212.848-.37 1.875-.473 3.09a46.68 46.68 0 0 0-.16 4.04c0 5.48.656 10.47 1.98 14.956 1.32 4.49 3.218 8.315 5.698 11.48 2.48 3.166 5.437 5.624 8.863 7.36 3.432 1.744 7.257 2.616 11.48 2.616 4.437 0 8.55-.98 12.35-2.93 3.803-1.952 7.708-5.144 11.715-9.58l4.91 4.436zm-26.123-42.743c2.112 0 3.8-.058 5.065-.16 1.267-.106 2.22-.318 2.852-.642.633-.31 1.054-.757 1.266-1.34.208-.577.314-1.343.314-2.3 0-4.847-1.554-8.73-4.67-11.64-3.113-2.895-7.36-4.347-12.743-4.347-11.4 0-18.47 6.81-21.21 20.43h29.13zm-187.02-54.487c0-2.74.952-5.065 2.85-6.964 1.9-1.895 4.22-2.85 6.966-2.85 2.745 0 5.07.955 6.968 2.85 1.9 1.9 2.85 4.224 2.85 6.964 0 2.75-.944 5.066-2.844 6.965-1.898 1.904-4.222 2.856-6.967 2.856-2.746 0-5.067-.958-6.966-2.86-1.9-1.9-2.85-4.217-2.85-6.967" fill="#221F20"/><g transform="translate(586.954 220.563)"><mask id="b" fill="#fff"><use xlink:href="#a"/></mask><path d="M.258 9.882c0-2.74.952-5.065 2.85-6.965C5.01 1.022 7.33.06 10.08.06c2.74 0 5.065.962 6.964 2.857 1.9 1.9 2.847 4.224 2.847 6.965 0 2.75-.943 5.065-2.843 6.964-1.9 1.904-4.223 2.856-6.964 2.856-2.75 0-5.07-.952-6.97-2.856-1.9-1.9-2.85-4.216-2.85-6.964" fill="#221F20" mask="url(#b)"/></g><path d="M387.87 232.195c-1.9-.536-3.38-1.505-4.433-2.935-1.058-1.422-1.77-3.374-2.14-5.858-.37-2.48-.552-5.774-.552-9.896V153.19l-52.99 10.175v3.148s3.11-1.138 3.955 3.458c.07.54.115 1.117.115 1.7 0 2.43-.478 5.23-1.425 8.39-.952 3.17-2.533 7.396-4.75 12.664l-10.26 28.863h-.633l-16.78-45.913a152.48 152.48 0 0 1-1.505-4.753c-.474-1.58-.713-3.267-.713-5.065 0-1.266.153-2.24.472-2.922.314-.69.868-1.217 1.66-1.59.793-.366 1.873-.605 3.246-.716a256.4 256.4 0 0 1 5.224-.31v-5.543H264.41v5.546c2.007.105 3.72.286 5.146.55a8.442 8.442 0 0 1 3.878 1.826c1.165.938 2.24 2.346 3.246 4.188 1 1.856 2.14 4.358 3.405 7.52l26.756 66.027h9.19l19.12-48.494c.638-1.26 1.32-2.93 2.06-4.99a119.96 119.96 0 0 1 2.457-6.25c.77-1.82 1.55-3.56 2.32-5.265 1.395-2.69 4.888-7.942 11.733-9.584 3.337-.81 5.843-.26 7.716 1.04.257.182.518.372.74.602.26.235.504.487.74.753a8.054 8.054 0 0 1 1.208 2.847c.426 1.474.718 4.188.873 8.15.16 3.96.234 8.998.234 15.117v20.264c0 3.697-.184 6.73-.55 9.108-.37 2.374-1.11 4.225-2.216 5.54-1.112 1.32-2.666 2.275-4.672 2.85-2.004.585-4.59.93-7.756 1.028v5.543h45.44v-5.542c-3.164-.096-5.7-.424-7.6-.942" fill="#221F20"/><g transform="translate(11.377 3.89)"><mask id="d" fill="#fff"><use xlink:href="#c"/></mask><path d="M106.163 63.06H79.01v6.018c5.59 0 9.625 1.08 12.108 3.245 2.48 2.165 3.715 6.31 3.715 12.424 0 2.962-.708 16.138-2.134 18.834-1.427 2.69-3.54 5.067-6.337 7.13-2.8 2.05-6.208 3.69-10.215 4.91-4.01 1.21-8.545 1.82-13.62 1.82-13.39 0-23.64-4.56-30.708-13.7-7.07-9.13-10.608-22.194-10.608-39.187 0-8.65.92-16.41 2.77-23.266 1.848-6.867 4.513-12.672 7.997-17.423 3.48-4.746 7.753-8.39 12.827-10.922 5.06-2.527 10.815-3.794 17.253-3.794 4.225 0 8.37.576 12.433 1.745 4.06 1.16 7.673 2.95 10.843 5.385 3.17 2.425 5.724 5.51 7.68 9.265 1.945 3.737 2.923 8.2 2.923 13.37h7.606l2.05-36.41h-5.537l-3.325 9.81C90.198 8.303 84.123 5.39 78.53 3.6 72.936 1.805 66.976.906 60.636.906c-8.966 0-17.174 1.56-24.608 4.667C28.575 8.693 22.195 13.1 16.87 18.8c-5.336 5.697-9.476 12.507-12.434 20.423C1.48 47.135 0 55.897 0 65.505c0 9.178 1.35 17.52 4.033 25.01 2.7 7.5 6.58 13.854 11.64 19.083 5.074 5.22 11.19 9.263 18.37 12.11 7.177 2.847 15.25 4.28 24.22 4.28 5.706 0 10.948-.64 15.756-1.907 4.8-1.27 9.05-2.952 12.74-5.06 2.954-1.686 5.51-3.04 7.674-4.033 2.164-1.005 4.148-1.797 5.94-2.377 1.79-.577 3.507-.958 5.14-1.108a58.3 58.3 0 0 1 5.465-.24V90.14s.075-.725.066-1.91c-.053-6.523 2.35-12.815 12.92-16.755V63.06H106.16z" fill="#221F20" mask="url(#d)"/></g></g></svg>
=======
<svg width="622" height="250" viewBox="0 0 622 250" xmlns="http://www.w3.org/2000/svg" xmlns:xlink="http://www.w3.org/1999/xlink"><title>logo</title><defs><path id="a" d="M19.888 19.702V.062H.258V19.7h19.63z"/><path id="c" d="M123.97.908H0v125.08h123.97V.91z"/></defs><g fill="none" fill-rule="evenodd"><path d="M188.436 61.588V55.1c0-12.883-5.49-19.32-16.466-19.32-1.793 0-3.325.163-4.59.478-1.267.32-2.326.845-3.167 1.59-.85.73-1.61 1.792-2.298 3.16-.686 1.373-1.346 3.064-1.98 5.07-1.16 3.055-2.292 5.096-3.404 6.092-1.102 1.005-2.714 1.506-4.822 1.506-5.282 0-7.916-2.64-7.916-7.917 0-5.07 2.69-8.996 8.076-11.79 5.384-2.8 13.03-4.206 22.956-4.206 10.553 0 18.05 1.877 22.48 5.623 4.433 3.75 6.65 10.103 6.65 19.073v35.47c0 12.03 2.38 18.046 7.125 18.046 1.48 0 2.9-.182 4.276-.56 1.37-.362 2.534-1.34 3.48-2.92l2.22 3.794c-1.267 2.43-3.587 4.463-6.965 6.1-3.383 1.63-6.916 2.454-10.61 2.454-4.643 0-8.1-1.484-10.37-4.437-2.275-2.95-3.404-7.124-3.404-12.508h-.792c-2.745 5.17-6.544 9.26-11.397 12.27-4.857 3.01-10.24 4.51-16.15 4.51-6.65 0-11.876-1.684-15.68-5.058-3.793-3.382-5.697-7.92-5.697-13.623 0-2.53.45-4.96 1.345-7.28.894-2.32 2.346-4.538 4.352-6.65 2.01-2.11 4.65-4.2 7.92-6.25 3.273-2.06 7.284-4.15 12.03-6.258l22.802-9.98zm0 6.81c-6.017 2.328-11.11 4.59-15.28 6.81-4.17 2.22-7.522 4.426-10.05 6.65-2.537 2.217-4.356 4.43-5.463 6.645-1.112 2.222-1.665 4.493-1.665 6.814 0 3.475 1.16 6.33 3.484 8.55 2.32 2.213 5.38 3.315 9.183 3.315 2.74 0 5.304-.682 7.677-2.05 2.378-1.377 4.46-3.245 6.252-5.623 1.798-2.377 3.22-5.175 4.277-8.39 1.058-3.22 1.59-6.62 1.59-10.21V68.393zm67.598 21.694c0 4.33.106 7.757.318 10.29.21 2.528.762 4.454 1.665 5.778.89 1.32 2.187 2.192 3.88 2.612 1.686.42 4.054.74 7.123.948v5.547h-42.115v-5.547c3.06-.102 5.486-.4 7.283-.868 1.793-.474 3.166-1.346 4.113-2.608.956-1.275 1.56-3.095 1.82-5.468.27-2.377.4-5.565.4-9.58V72.678c0-7.187-.08-12.78-.24-16.786-.16-4.01-.683-6.97-1.58-8.868-.9-1.9-2.295-3.037-4.194-3.4-1.9-.372-4.54-.563-7.917-.563v-5.535l27.707-6.017 2.218 19.636h.633a39.725 39.725 0 0 1 5.145-8.714c2.06-2.63 4.3-4.88 6.73-6.726 2.427-1.85 4.96-3.3 7.598-4.352 2.64-1.053 5.328-1.584 8.077-1.584 3.378 0 6.04.82 7.996 2.457 1.947 1.63 2.926 3.825 2.926 6.566 0 2.54-.794 4.51-2.374 5.944-1.586 1.42-3.857 2.138-6.81 2.138-1.69 0-3.113-.21-4.273-.63a23.8 23.8 0 0 1-3.09-1.35c-.894-.475-1.74-.927-2.532-1.347-.792-.425-1.66-.634-2.612-.634-2.847 0-5.698 1.825-8.55 5.468-2.846 3.64-5.064 8.25-6.65 13.845-.84 3.066-1.505 6.524-1.978 10.376-.475 3.846-.714 7.89-.714 12.113v5.382zm75.516 0c0 4.33.107 7.757.32 10.29.208 2.528.762 4.454 1.665 5.778.89 1.32 2.187 2.192 3.878 2.612 1.687.42 4.056.74 7.124.948v5.547h-42.114v-5.547c3.06-.102 5.485-.4 7.283-.868 1.79-.474 3.166-1.346 4.113-2.608.943-1.275 1.554-3.095 1.82-5.468.26-2.377.394-5.565.394-9.58V72.678c0-7.187-.08-12.78-.24-16.786-.158-4.01-.685-6.97-1.58-8.868-.898-1.9-2.297-3.037-4.197-3.4-1.9-.372-4.54-.563-7.917-.563v-5.535l27.708-6.017 2.22 19.636h.633a39.725 39.725 0 0 1 5.146-8.714c2.06-2.63 4.3-4.88 6.73-6.726 2.426-1.85 4.96-3.3 7.598-4.352 2.634-1.053 5.326-1.584 8.076-1.584 3.38 0 6.04.82 7.992 2.457 1.953 1.63 2.93 3.825 2.93 6.566 0 2.54-.79 4.51-2.372 5.944-1.584 1.42-3.855 2.138-6.81 2.138-1.69 0-3.11-.21-4.27-.63a23.8 23.8 0 0 1-3.09-1.35c-.896-.475-1.74-.927-2.534-1.347-.792-.425-1.665-.634-2.612-.634-2.847 0-5.698 1.825-8.55 5.468-2.847 3.64-5.065 8.25-6.65 13.845-.846 3.066-1.505 6.524-1.98 10.376-.473 3.846-.712 7.89-.712 12.113v5.382zm114.94 10.443c-8.97 10.88-20.105 16.31-33.405 16.31-6.23 0-11.875-1.03-16.94-3.085-5.065-2.063-9.417-4.96-13.06-8.713-3.645-3.737-6.47-8.23-8.47-13.45-2.007-5.23-3.007-11.008-3.007-17.344 0-6.433 1.054-12.4 3.166-17.887 2.107-5.49 5.09-10.183 8.943-14.092 3.852-3.906 8.443-6.965 13.774-9.18 5.335-2.217 11.166-3.328 17.497-3.328 10.237 0 18.153 2.767 23.75 8.315 5.59 5.547 8.39 13.49 8.39 23.83 0 1.48-.293 2.38-.868 2.69-.586.323-1.93.478-4.04.478h-52.09c-.212.84-.372 1.873-.474 3.09-.106 1.21-.16 2.56-.16 4.034 0 5.49.656 10.47 1.98 14.96 1.32 4.495 3.22 8.316 5.698 11.48 2.48 3.16 5.437 5.62 8.87 7.364 3.426 1.745 7.255 2.617 11.475 2.617 4.435 0 8.55-.986 12.347-2.94 3.803-1.947 7.708-5.144 11.715-9.57l4.91 4.426zm-26.122-42.743c2.112 0 3.8-.058 5.07-.155 1.26-.11 2.213-.323 2.847-.638.633-.32 1.053-.77 1.266-1.345.21-.58.318-1.35.318-2.298 0-4.858-1.554-8.736-4.666-11.64-3.117-2.905-7.363-4.353-12.747-4.353-11.4 0-18.472 6.805-21.213 20.424h29.127zm37.364-16.466v-5.853c5.592-3.276 9.976-6.552 13.14-9.824 3.167-3.267 5.598-7.17 7.285-11.715h4.59V33.88h21.218v7.443h-21.217v48.132c0 3.697.18 6.805.553 9.333.376 2.537.978 4.57 1.82 6.1.85 1.533 1.957 2.618 3.33 3.25 1.372.63 3.112.95 5.224.95 2.64 0 4.884-.56 6.73-1.666 1.847-1.11 3.666-2.98 5.46-5.623l3.962 3.006c-1.48 3.91-4.038 6.89-7.682 8.953-3.64 2.055-8.15 3.087-13.535 3.087-6.965 0-12.27-1.665-15.913-4.99-3.64-3.325-5.46-8.103-5.46-14.328V41.324h-9.5zm56.678 0v-5.853c5.598-3.276 9.976-6.552 13.142-9.824 3.166-3.267 5.597-7.17 7.283-11.715h4.592V33.88h21.216v7.443h-21.216v48.132c0 3.697.18 6.805.553 9.333.372 2.537.974 4.57 1.824 6.1.842 1.533 1.948 2.618 3.32 3.25 1.374.63 3.114.95 5.23.95 2.634 0 4.88-.56 6.725-1.666 1.843-1.11 3.662-2.98 5.46-5.623l3.96 3.006c-1.48 3.91-4.04 6.89-7.68 8.953-3.64 2.055-8.154 3.087-13.538 3.087-6.964 0-12.268-1.665-15.912-4.99-3.64-3.325-5.46-8.103-5.46-14.328V41.324h-9.5z" fill="#221F20"/><path d="M171.26 213.98c0 4.02.16 7.238.474 9.66.32 2.426.974 4.33 1.98 5.702 1 1.368 2.426 2.32 4.276 2.852 1.847.522 4.3.845 7.363.943v5.543h-43.7v-5.543c3.166-.098 5.7-.443 7.598-1.027 1.908-.576 3.41-1.5 4.52-2.768 1.103-1.266 1.84-3.037 2.214-5.308.373-2.267.554-5.247.554-8.944v-68.232c0-5.703-.08-10.48-.234-14.332-.16-3.852-.4-6.464-.713-7.837-.527-2.426-1.77-8.68-3.724-9.52-1.952-.85-5.46-9.837-10.528-9.837V99.96l29.925 11.088v102.93zm91.06 9.978c-8.97 10.874-20.105 16.307-33.406 16.307-6.23 0-11.874-1.028-16.94-3.086-5.065-2.06-9.417-4.968-13.06-8.71-3.644-3.75-6.47-8.238-8.47-13.46-2.006-5.22-3.007-11-3.007-17.337 0-6.437 1.054-12.397 3.166-17.896 2.107-5.48 5.092-10.175 8.944-14.085 3.85-3.905 8.443-6.97 13.774-9.182 5.33-2.213 11.165-3.324 17.497-3.324 10.236 0 18.152 2.766 23.75 8.305 5.59 5.55 8.39 13.497 8.39 23.835 0 1.483-.293 2.373-.87 2.692-.583.314-1.93.474-4.037.474h-52.09c-.213.846-.37 1.873-.474 3.087a46.68 46.68 0 0 0-.16 4.042c0 5.48.656 10.47 1.98 14.955 1.32 4.49 3.218 8.315 5.698 11.48 2.48 3.166 5.437 5.624 8.868 7.36 3.428 1.744 7.258 2.616 11.477 2.616 4.435 0 8.55-.98 12.35-2.93 3.8-1.953 7.705-5.145 11.712-9.58l4.91 4.435zm-26.122-42.743c2.11 0 3.798-.058 5.07-.16 1.26-.106 2.213-.318 2.846-.642.633-.31 1.054-.757 1.266-1.34.208-.577.315-1.343.315-2.3 0-4.847-1.555-8.73-4.667-11.64-3.117-2.895-7.363-4.347-12.747-4.347-11.4 0-18.47 6.81-21.21 20.43h29.13zm193.47 32.61c0 4.33.105 7.73.313 10.21.217 2.483.77 4.38 1.67 5.702.893 1.32 2.217 2.19 3.957 2.612 1.74.42 4.14.735 7.204.944v5.383H401.33v-5.384c2.958-.21 5.304-.527 7.044-.948 1.747-.422 3.09-1.267 4.04-2.53.95-1.274 1.56-3.063 1.82-5.383.266-2.32.4-5.494.4-9.5v-21.06c0-12.564-.316-20.21-.953-22.96-.316-1.368-.71-2.506-1.184-3.404-.478-.895-1.19-1.577-2.142-2.055-.947-.478-2.165-.792-3.64-.956-1.48-.156-3.377-.23-5.697-.23v-5.07l25.33-6.014 1.904 15.668h.628c4.012-4.957 8.71-8.81 14.093-11.55 5.385-2.75 11.243-4.12 17.574-4.12 4.853 0 9.29.786 13.3 2.376 4.01 1.58 7.07 3.744 9.184 6.494 1.79 2.426 3.06 5.565 3.8 9.417.734 3.853 1.106 9.157 1.106 15.914v26.437c0 4.33.13 7.73.393 10.21.265 2.485.82 4.38 1.664 5.704.843 1.32 2.14 2.19 3.88 2.613 1.744.42 4.038.738 6.89.947v5.383h-41.01v-5.383c2.954-.107 5.305-.4 7.05-.868 1.735-.475 3.058-1.347 3.953-2.61.9-1.274 1.48-3.094 1.744-5.467.26-2.378.394-5.512.394-9.417v-20.9c0-6.017-.32-11.082-.945-15.195-.63-4.117-1.663-7.447-3.09-9.98-1.424-2.528-3.297-4.356-5.617-5.46-2.325-1.11-5.118-1.663-8.39-1.663-4.75 0-9.108 1.244-13.062 3.723-3.96 2.484-7.047 5.884-9.26 10.214a34.06 34.06 0 0 0-1.347 3.006c-.373.946-.665 2.058-.873 3.324-.212 1.262-.367 2.718-.473 4.356-.106 1.63-.16 3.715-.16 6.252v21.212zm146.012 10.133c-8.97 10.874-20.106 16.307-33.406 16.307-6.23 0-11.874-1.028-16.94-3.086-5.065-2.06-9.417-4.968-13.06-8.71-3.645-3.75-6.47-8.238-8.47-13.46-2.006-5.22-3.01-11-3.01-17.337 0-6.437 1.057-12.397 3.17-17.896 2.106-5.48 5.09-10.175 8.942-14.085 3.852-3.905 8.444-6.97 13.77-9.182 5.33-2.213 11.166-3.324 17.498-3.324 10.236 0 18.152 2.766 23.75 8.305 5.59 5.55 8.39 13.497 8.39 23.835 0 1.483-.293 2.373-.87 2.692-.583.314-1.93.474-4.037.474h-52.09c-.212.846-.37 1.873-.473 3.087a46.68 46.68 0 0 0-.16 4.042c0 5.48.656 10.47 1.98 14.955 1.32 4.49 3.218 8.315 5.698 11.48 2.48 3.166 5.437 5.624 8.863 7.36 3.432 1.744 7.257 2.616 11.48 2.616 4.437 0 8.55-.98 12.35-2.93 3.803-1.953 7.708-5.145 11.715-9.58l4.91 4.435zm-26.123-42.743c2.112 0 3.8-.058 5.065-.16 1.267-.106 2.22-.318 2.852-.642.633-.31 1.054-.757 1.266-1.34.208-.577.314-1.343.314-2.3 0-4.847-1.554-8.73-4.67-11.64-3.113-2.895-7.36-4.347-12.743-4.347-11.4 0-18.47 6.81-21.21 20.43h29.13zm-187.02-54.487c0-2.74.952-5.065 2.85-6.964 1.9-1.895 4.22-2.85 6.966-2.85 2.745 0 5.07.955 6.968 2.85 1.9 1.9 2.85 4.224 2.85 6.964 0 2.75-.946 5.066-2.846 6.965-1.898 1.904-4.222 2.856-6.967 2.856-2.745 0-5.066-.956-6.965-2.86-1.9-1.9-2.85-4.215-2.85-6.965" fill="#221F20"/><g transform="translate(586.954 220.563)"><mask id="b" fill="#fff"><use xlink:href="#a"/></mask><path d="M.258 9.882c0-2.74.952-5.065 2.85-6.965C5.01 1.022 7.33.06 10.08.06c2.74 0 5.065.962 6.964 2.857 1.9 1.9 2.847 4.224 2.847 6.965 0 2.75-.945 5.065-2.845 6.964-1.9 1.904-4.223 2.856-6.964 2.856-2.75 0-5.07-.952-6.97-2.856-1.9-1.9-2.85-4.216-2.85-6.964" fill="#221F20" mask="url(#b)"/></g><path d="M387.87 232.195c-1.9-.536-3.38-1.505-4.433-2.935-1.058-1.422-1.77-3.374-2.14-5.858-.37-2.48-.552-5.774-.552-9.896V153.19l-52.99 10.175v3.148s3.11-1.138 3.955 3.458c.07.54.115 1.115.115 1.7 0 2.43-.478 5.23-1.425 8.39-.952 3.17-2.533 7.394-4.75 12.662l-10.26 28.863h-.633l-16.78-45.913a152.48 152.48 0 0 1-1.505-4.753c-.474-1.58-.713-3.268-.713-5.066 0-1.266.155-2.24.474-2.922.314-.69.868-1.217 1.66-1.59.793-.366 1.873-.605 3.246-.716a256.4 256.4 0 0 1 5.225-.31v-5.543H264.41v5.546c2.007.106 3.72.287 5.146.55a8.442 8.442 0 0 1 3.878 1.827c1.165.938 2.24 2.346 3.246 4.188 1 1.856 2.14 4.358 3.405 7.52l26.756 66.027h9.19l19.12-48.496c.636-1.26 1.318-2.93 2.058-4.99.74-2.05 1.558-4.138 2.457-6.25.77-1.82 1.55-3.56 2.32-5.265 1.395-2.692 4.888-7.943 11.733-9.585 3.338-.81 5.844-.26 7.717 1.04.257.182.518.372.74.602.26.235.504.487.74.753a8.054 8.054 0 0 1 1.208 2.846c.426 1.474.718 4.188.873 8.15.16 3.96.234 8.998.234 15.117v20.264c0 3.697-.186 6.73-.55 9.108-.37 2.374-1.11 4.225-2.218 5.54-1.112 1.32-2.666 2.275-4.672 2.85-2.005.585-4.59.93-7.757 1.028v5.543h45.44v-5.542c-3.164-.096-5.7-.424-7.6-.942" fill="#221F20"/><g transform="translate(11.377 3.89)"><mask id="d" fill="#fff"><use xlink:href="#c"/></mask><path d="M106.163 63.06H79.01v6.018c5.59 0 9.625 1.08 12.108 3.245 2.48 2.165 3.715 6.31 3.715 12.424 0 2.962-.708 16.138-2.134 18.834-1.425 2.69-3.54 5.065-6.335 7.13-2.8 2.05-6.208 3.69-10.215 4.908-4.01 1.21-8.544 1.82-13.62 1.82-13.39 0-23.64-4.56-30.707-13.7-7.07-9.128-10.608-22.194-10.608-39.187 0-8.65.92-16.41 2.77-23.266 1.848-6.867 4.513-12.672 7.997-17.423 3.48-4.746 7.753-8.39 12.827-10.922 5.06-2.528 10.815-3.795 17.253-3.795 4.224 0 8.368.576 12.432 1.745 4.06 1.16 7.673 2.95 10.843 5.384 3.17 2.425 5.724 5.51 7.68 9.265 1.945 3.737 2.923 8.2 2.923 13.37h7.608l2.05-36.41h-5.537l-3.324 9.81C90.198 8.302 84.123 5.39 78.53 3.6 72.936 1.805 66.976.906 60.636.906c-8.966 0-17.174 1.56-24.608 4.667C28.575 8.693 22.195 13.1 16.87 18.8c-5.336 5.697-9.476 12.507-12.434 20.423C1.48 47.135 0 55.897 0 65.505c0 9.178 1.35 17.52 4.033 25.01 2.7 7.5 6.58 13.854 11.64 19.083 5.074 5.22 11.19 9.263 18.37 12.11 7.177 2.847 15.25 4.28 24.22 4.28 5.706 0 10.948-.64 15.756-1.907 4.8-1.27 9.05-2.954 12.743-5.06 2.953-1.688 5.508-3.04 7.673-4.035 2.164-1.005 4.148-1.797 5.94-2.377 1.79-.576 3.507-.957 5.14-1.107a58.3 58.3 0 0 1 5.465-.24V90.14s.076-.725.067-1.91c-.053-6.523 2.35-12.815 12.92-16.755V63.06H106.16z" fill="#221F20" mask="url(#d)"/></g></g></svg>

